<?xml version="1.0" encoding="UTF-8"?> <svg xmlns="http://www.w3.org/2000/svg" xmlns:xlink="http://www.w3.org/1999/xlink" id="Calque_1" version="1.1" viewBox="0 0 180 180"><defs><style> .st0 { fill: #17311c; } .st0, .st1, .st2, .st3, .st4, .st5, .st6, .st7, .st8, .st9, .st10, .st11, .st12, .st13, .st14, .st15, .st16, .st17, .st18, .st19, .st20, .st21, .st22, .st23, .st24, .st25, .st26 { fill-rule: evenodd; } .st1 { fill: #1c421e; } .st2 { fill: #06488f; } .st27 { fill: url(#linear-gradient2); } .st28 { mask: url(#mask-5); } .st29 { fill: url(#linear-gradient10); } .st30 { mask: url(#mask-1); } .st3 { fill: #98c343; } .st4 { fill: #6bb53a; } .st5 { fill: #027c71; } .st31 { mask: url(#mask-10); } .st32 { mask: url(#mask-6); } .st33 { mask: url(#mask-7); } .st34 { mask: url(#mask); } .st6 { fill: #46c1f1; } .st35 { fill: url(#linear-gradient1); } .st36 { fill: url(#linear-gradient9); } .st37 { fill: url(#linear-gradient8); } .st38 { mask: url(#mask-8); } .st39 { fill: url(#linear-gradient16); } .st40 { mask: url(#mask-2); } .st41 { mask: url(#mask-9); } .st7 { fill: url(#linear-gradient15); } .st8 { fill: #17612c; } .st9 { fill: #ccd95a; } .st42 { fill: url(#linear-gradient7); } .st43 { fill: #0a9439; letter-spacing: .03em; } .st10 { fill: #8ec046; } .st11 { fill: #52a833; } .st12 { fill: #1f3c76; } .st13 { fill: #035c51; } .st14 { fill: url(#linear-gradient11); } .st15 { fill: #257e34; } .st44 { fill: url(#linear-gradient14); } .st45 { fill: url(#linear-gradient5); } .st46 { fill: url(#linear-gradient3); } .st47 { mask: url(#mask-11); } .st16 { fill: #7ac8cf; } .st48 { mask: url(#mask-12); } .st17 { fill: url(#linear-gradient4); } .st18 { fill: #3a9536; } .st49 { fill: url(#linear-gradient6); } .st50 { letter-spacing: .03em; } .st50, .st51 { fill: #2c333b; } .st19 { fill: url(#linear-gradient12); } .st52 { mask: url(#mask-4); } .st20 { fill: #1d5125; } .st21 { fill: #185a29; } .st22 { fill: #4ca736; } .st53 { fill: url(#linear-gradient13); } .st23 { fill: url(#linear-gradient); } .st24 { fill: #3c8a4d; } .st25 { fill: #237e34; } .st54 { font-size: 48.47px; } .st54, .st51 { font-family: Righteous-Regular, Righteous; } .st26 { fill: #1b421e; } .st55 { mask: url(#mask-3); } .st51 { font-size: 10.53px; letter-spacing: .48em; } </style><linearGradient id="linear-gradient" x1="7272.92" y1="-5330.02" x2="7375.94" y2="-4964.27" gradientTransform="translate(-448.79 457.33) scale(.07)" gradientUnits="userSpaceOnUse"><stop offset="0" stop-color="#027c71"></stop><stop offset="1" stop-color="#70c5ca"></stop></linearGradient><linearGradient id="linear-gradient1" x1="7059.76" y1="-5419.4" x2="7524.17" y2="-5027.16" gradientTransform="translate(-448.79 457.33) scale(.07)" gradientUnits="userSpaceOnUse"><stop offset="0" stop-color="#fff"></stop><stop offset="1" stop-color="#fff" stop-opacity="0"></stop></linearGradient><mask id="mask" x="67.73" y="76.69" width="22.2" height="13.52" maskUnits="userSpaceOnUse"><g id="id0"><rect class="st35" x="67.73" y="76.69" width="22.2" height="13.52"></rect></g></mask><linearGradient id="linear-gradient2" x1="7320.25" y1="-5357.97" x2="7322.86" y2="-4965.3" xlink:href="#linear-gradient1"></linearGradient><mask id="mask-1" x="67.29" y="76.69" width="22.18" height="21.71" maskUnits="userSpaceOnUse"><g id="id2"><rect class="st27" x="67.29" y="76.69" width="22.18" height="21.71"></rect></g></mask><mask id="mask-2" x="67.73" y="76.69" width="22.2" height="13.52" maskUnits="userSpaceOnUse"><g id="id4"><rect class="st35" x="67.73" y="76.69" width="22.2" height="13.52"></rect></g></mask><linearGradient id="linear-gradient3" x1="7155.42" y1="-4908.36" x2="7306.78" y2="-5214.7" xlink:href="#linear-gradient1"></linearGradient><mask id="mask-3" x="68.37" y="83.36" width="9.9" height="13.16" maskUnits="userSpaceOnUse"><g id="id6"><rect class="st46" x="68.37" y="83.36" width="9.9" height="13.16"></rect></g></mask><linearGradient id="linear-gradient4" x1="7693.38" y1="-5330.03" x2="7590.37" y2="-4964.29" gradientTransform="translate(-448.79 457.33) scale(.07)" gradientUnits="userSpaceOnUse"><stop offset="0" stop-color="#06488f"></stop><stop offset="1" stop-color="#47aee3"></stop></linearGradient><linearGradient id="linear-gradient5" x1="7906.54" y1="-5419.42" x2="7442.13" y2="-5027.17" xlink:href="#linear-gradient1"></linearGradient><mask id="mask-4" x="90.07" y="76.69" width="22.2" height="13.52" maskUnits="userSpaceOnUse"><g id="id8"><rect class="st45" x="90.07" y="76.69" width="22.2" height="13.52"></rect></g></mask><linearGradient id="linear-gradient6" x1="7646.06" y1="-5357.99" x2="7643.45" y2="-4965.3" xlink:href="#linear-gradient1"></linearGradient><mask id="mask-5" x="90.53" y="76.69" width="22.18" height="21.71" maskUnits="userSpaceOnUse"><g id="id10"><rect class="st49" x="90.53" y="76.69" width="22.18" height="21.71"></rect></g></mask><linearGradient id="linear-gradient7" x1="7906.54" y1="-5419.42" x2="7442.13" y2="-5027.17" xlink:href="#linear-gradient1"></linearGradient><mask id="mask-6" x="90.07" y="76.69" width="22.2" height="13.52" maskUnits="userSpaceOnUse"><g id="id12"><rect class="st42" x="90.07" y="76.69" width="22.2" height="13.52"></rect></g></mask><linearGradient id="linear-gradient8" x1="7810.88" y1="-4908.38" x2="7659.53" y2="-5214.71" xlink:href="#linear-gradient1"></linearGradient><mask id="mask-7" x="101.74" y="83.36" width="9.9" height="13.16" maskUnits="userSpaceOnUse"><g id="id14"><rect class="st37" x="101.74" y="83.36" width="9.9" height="13.16"></rect></g></mask><linearGradient id="linear-gradient9" x1="7579.86" y1="-4830.63" x2="7455.99" y2="-5164.76" xlink:href="#linear-gradient1"></linearGradient><mask id="mask-8" x="89.68" y="93.38" width="6" height="9.19" maskUnits="userSpaceOnUse"><g id="id18"><rect class="st36" x="89.68" y="93.38" width="6" height="9.19"></rect></g></mask><linearGradient id="linear-gradient10" x1="7386.46" y1="-4830.62" x2="7510.33" y2="-5164.76" xlink:href="#linear-gradient1"></linearGradient><mask id="mask-9" x="84.32" y="93.38" width="6" height="9.19" maskUnits="userSpaceOnUse"><g id="id22"><rect class="st29" x="84.32" y="93.38" width="6" height="9.19"></rect></g></mask><linearGradient id="linear-gradient11" x1="7479.28" y1="-4634.32" x2="7604.33" y2="-4505.22" gradientTransform="translate(-448.79 -223.2) scale(.07 -.07)" gradientUnits="userSpaceOnUse"><stop offset="0" stop-color="#0e7d35"></stop><stop offset="1" stop-color="#9ac43b"></stop></linearGradient><linearGradient id="linear-gradient12" x1="7487.04" y1="-4634.31" x2="7361.99" y2="-4505.21" xlink:href="#linear-gradient11"></linearGradient><linearGradient id="linear-gradient13" x1="7885.78" y1="-4357.2" x2="7430.38" y2="-4641.15" gradientTransform="translate(-448.79 -223.2) scale(.07 -.07)" xlink:href="#linear-gradient1"></linearGradient><mask id="mask-10" x="90" y="101.18" width="9" height="9.22" maskUnits="userSpaceOnUse"><g id="id16"><rect class="st53" x="90" y="101.18" width="9" height="9.22"></rect></g></mask><linearGradient id="linear-gradient14" x1="7080.54" y1="-4357.2" x2="7535.93" y2="-4641.14" gradientTransform="translate(-448.79 -223.2) scale(.07 -.07)" xlink:href="#linear-gradient1"></linearGradient><mask id="mask-11" x="81" y="101.18" width="9" height="9.22" maskUnits="userSpaceOnUse"><g id="id20"><rect class="st44" x="81" y="101.18" width="9" height="9.22"></rect></g></mask><linearGradient id="linear-gradient15" x1="7483.16" y1="-4637.86" x2="7483.17" y2="-4394.5" xlink:href="#linear-gradient11"></linearGradient><linearGradient id="linear-gradient16" x1="7449.13" y1="-4580.77" x2="7449.13" y2="-5075.8" xlink:href="#linear-gradient1"></linearGradient><mask id="mask-12" x="85.05" y="93.38" width="4.99" height="17.07" maskUnits="userSpaceOnUse"><g id="id24"><rect class="st39" x="85.06" y="93.38" width="4.99" height="17.07"></rect></g></mask></defs><g><path class="st24" d="M63.89,58.06c-19.5-11.26-42.62-10.57-60.88-.2.15,21,11.11,41.37,30.61,52.62,20.07,11.59,36.84,11.96,47.38,6.22.9-.49,1.45-1.31,1.57-2.32s-.23-1.94-.99-2.63c-11.51-10.38-25.78-24.49-14.84-35.43h0c4.56-4.56,11.55-5.32,16.91-2.26-4.66-5.57-11.18-11.04-19.77-16Z"></path><path class="st22" d="M92.4,51.7c-11.26-19.5-31.63-30.46-52.62-30.61-10.37,18.26-11.06,41.38.2,60.88,12.51,21.67,28.23,30.1,40.74,28.99-11.33-10.3-24.63-23.98-13.97-34.64h0c5.47-5.47,14.41-5.47,19.88,0,1.15,1.15,2.21,2.34,3.17,3.56.07.09.14.19.21.28.07-.09.14-.18.21-.28.96-1.22,2.01-2.41,3.17-3.56,2.12-2.12,4.76-3.42,7.51-3.89-1.48-6.36-4.22-13.32-8.5-20.73Z"></path><path class="st21" d="M31.78,49.87c-.28,10.89,2.35,21.98,8.19,32.1,12.51,21.67,28.23,30.1,40.75,29-11.34-10.3-24.64-23.98-13.98-34.64h0c4.56-4.57,11.55-5.32,16.91-2.26-4.66-5.57-11.18-11.04-19.77-16-10.12-5.84-21.22-8.47-32.1-8.19Z"></path><path class="st4" d="M120.26,60.45c0-22.52-12.16-42.19-30.26-52.82-18.11,10.63-30.27,30.3-30.27,52.82,0,8.89,1.19,16.53,3.23,22.94.36-2.45,1.54-4.82,3.79-7.07h0c5.47-5.47,14.41-5.47,19.88,0,1.15,1.15,2.21,2.34,3.17,3.56.07.09.14.19.21.28.07-.09.14-.18.21-.28.96-1.22,2.01-2.41,3.17-3.56,5.47-5.47,14.41-5.47,19.88,0h0c2.24,2.24,3.42,4.62,3.78,7.06,2.04-6.4,3.23-14.04,3.23-22.93Z"></path><path class="st25" d="M68.69,28.56c-5.68,9.29-8.96,20.21-8.96,31.89,0,8.89,1.19,16.54,3.23,22.94.37-2.45,1.54-4.83,3.79-7.07h0c5.47-5.47,14.41-5.47,19.88,0,1.15,1.15,2.21,2.34,3.17,3.56.07.09.14.19.21.28.07-.09.14-.18.21-.28.96-1.22,2.01-2.41,3.17-3.56,2.12-2.12,4.76-3.42,7.52-3.89-1.48-6.36-4.23-13.32-8.5-20.73-5.84-10.12-14.14-17.94-23.71-23.14Z"></path><path class="st1" d="M59.9,55.94c-.11,1.49-.16,2.99-.16,4.51,0,8.89,1.19,16.54,3.23,22.94.37-2.45,1.54-4.83,3.79-7.07h0c4.56-4.57,11.55-5.32,16.91-2.26-4.66-5.57-11.18-11.04-19.77-16-1.31-.76-2.65-1.46-3.99-2.11Z"></path><path class="st10" d="M140.03,81.97c11.26-19.5,10.56-42.62.2-60.88-21,.15-41.37,11.11-52.62,30.61-4.28,7.41-7.02,14.37-8.5,20.73,2.76.47,5.4,1.77,7.51,3.89,1.15,1.15,2.21,2.34,3.17,3.56.07.09.14.19.21.28.07-.09.14-.18.21-.28.96-1.22,2.01-2.41,3.17-3.56,5.47-5.47,14.41-5.47,19.88,0h0c10.66,10.66-2.64,24.34-13.98,34.64,12.52,1.1,28.23-7.32,40.75-28.99Z"></path><path class="st3" d="M146.38,110.48c19.5-11.26,30.46-31.62,30.61-52.62-18.26-10.37-41.38-11.06-60.88.2-8.6,4.96-15.11,10.43-19.77,16,5.37-3.06,12.35-2.3,16.91,2.26h0c10.94,10.93-3.34,25.04-14.84,35.43-.76.69-1.11,1.61-.99,2.63s.68,1.83,1.57,2.32c10.54,5.74,27.31,5.37,47.38-6.22Z"></path><path class="st11" d="M148.21,49.87c-10.89-.28-21.98,2.35-32.1,8.19-8.6,4.96-15.11,10.43-19.77,16,5.36-3.06,12.35-2.3,16.91,2.26h0c10.66,10.66-2.65,24.34-13.98,34.64,12.52,1.1,28.24-7.33,40.75-29,5.84-10.12,8.46-21.21,8.19-32.1Z"></path><path class="st18" d="M111.31,28.56c-9.57,5.2-17.86,13.02-23.71,23.14-4.28,7.41-7.03,14.37-8.5,20.73,2.76.48,5.4,1.77,7.52,3.89,1.15,1.15,2.21,2.34,3.17,3.56.07.09.14.19.21.28.07-.09.14-.18.21-.28.96-1.22,2.01-2.41,3.17-3.56,5.47-5.47,14.41-5.47,19.88,0h0c2.24,2.24,3.42,4.62,3.78,7.07,2.04-6.4,3.23-14.05,3.23-22.94,0-11.69-3.27-22.61-8.96-31.89Z"></path><path class="st8" d="M100.9,72.43c-1.48-6.36-4.23-13.32-8.5-20.73-.76-1.31-1.56-2.58-2.4-3.82-.84,1.24-1.64,2.51-2.4,3.82-4.28,7.41-7.03,14.37-8.5,20.73,2.76.48,5.4,1.77,7.52,3.89,1.15,1.15,2.21,2.34,3.17,3.56.07.09.14.19.21.28.07-.09.14-.18.21-.28.96-1.22,2.01-2.41,3.17-3.56,2.12-2.12,4.76-3.42,7.52-3.89Z"></path><path class="st15" d="M117.04,83.39c2.04-6.4,3.23-14.05,3.23-22.94,0-1.52-.05-3.02-.16-4.51-1.34.65-2.67,1.35-3.99,2.11-8.6,4.96-15.11,10.43-19.77,16,5.36-3.06,12.35-2.3,16.91,2.26h0c2.24,2.24,3.42,4.62,3.78,7.07Z"></path><path class="st0" d="M79.76,69.85c-.24.87-.46,1.73-.66,2.57,1.58.27,3.13.82,4.56,1.63-1.18-1.41-2.47-2.81-3.9-4.2Z"></path><path class="st20" d="M100.9,72.43c-.2-.85-.42-1.7-.66-2.57-1.42,1.39-2.72,2.79-3.9,4.2,1.43-.81,2.97-1.36,4.56-1.63Z"></path></g><g><path class="st23" d="M76.49,99.32l13.4-13.07-6.54-6.7c-3.6-3.69-9.55-3.76-13.24-.16-3.69,3.6-3.76,9.55-.16,13.24l6.54,6.7h0Z"></path><g class="st34"><path class="st13" d="M85.87,90.16l4.02-3.92-6.54-6.7c-3.6-3.69-9.55-3.76-13.24-.16-1.1,1.08-1.88,2.36-2.34,3.74,3.79-5.6,9.82-3.26,18.1,7.04h0s0,0,0,0Z"></path></g><g class="st30"><path class="st5" d="M89.42,85.77l-6.07-6.22c-3.6-3.69-9.55-3.76-13.24-.16-1.67,1.63-2.6,3.76-2.78,5.93.05,2.3.93,4.58,2.65,6.34l6.54,6.7,12.9-12.59Z"></path></g><g class="st40"><path class="st13" d="M85.87,90.16l4.02-3.92-6.54-6.7c-3.6-3.69-9.55-3.76-13.24-.16-1.1,1.08-1.88,2.36-2.34,3.74,3.79-5.6,9.82-3.26,18.1,7.04h0s0,0,0,0Z"></path></g><g class="st55"><path class="st16" d="M77.79,96.19l.12-.12c.4-.39.41-1.03.02-1.43l-7.66-7.85c-.96-1.16-1.11-2.42-.92-3.38-1.32,2.12-1.24,4.05.21,5.8l6.79,6.96c.39.4,1.03.41,1.43.02h0Z"></path></g><path class="st17" d="M103.51,99.32l-13.4-13.07,6.54-6.7c3.6-3.69,9.55-3.76,13.24-.16,3.69,3.6,3.76,9.55.16,13.24l-6.54,6.7h0Z"></path><g class="st52"><path class="st13" d="M94.13,90.16l-4.02-3.92,6.54-6.7c3.6-3.69,9.55-3.76,13.24-.16,1.1,1.08,1.88,2.36,2.34,3.74-3.79-5.6-9.82-3.26-18.1,7.04h0,0Z"></path></g><g class="st28"><path class="st2" d="M90.58,85.77l6.07-6.22c3.6-3.69,9.55-3.76,13.24-.16,1.67,1.63,2.6,3.76,2.78,5.93-.05,2.3-.93,4.58-2.65,6.34l-6.54,6.7-12.9-12.59h0Z"></path></g><g class="st32"><path class="st12" d="M94.13,90.16l-4.02-3.92,6.54-6.7c3.6-3.69,9.55-3.76,13.24-.16,1.1,1.08,1.88,2.36,2.34,3.74-3.79-5.6-9.82-3.26-18.1,7.04h0,0Z"></path></g><g class="st33"><path class="st6" d="M102.21,96.19l-.12-.12c-.4-.39-.41-1.03-.02-1.43l7.66-7.85c.96-1.16,1.11-2.42.92-3.38,1.32,2.12,1.24,4.05-.21,5.8l-6.79,6.96c-.39.4-1.03.41-1.43.02h0Z"></path></g><g class="st38"><path class="st26" d="M90,93.42c-.68,2.4-.1,5.1,1.76,7.02,1.09,1.12,2.44,1.81,3.87,2.08,0-.35,0-.7-.03-1.05-.31-3.61-2.54-6.6-5.6-8.05h0Z"></path></g><g class="st41"><path class="st26" d="M90,93.42c.68,2.4.1,5.1-1.76,7.02-1.09,1.12-2.44,1.81-3.87,2.08,0-.35,0-.7.03-1.05.31-3.61,2.54-6.6,5.6-8.05h0Z"></path></g><g><path class="st14" d="M98.72,101.18c.68,2.4.1,5.1-1.76,7.02-1.86,1.92-4.54,2.59-6.96,1.99-.68-2.4-.1-5.1,1.76-7.02,1.86-1.92,4.54-2.59,6.96-1.99Z"></path><path class="st19" d="M81.28,101.18c-.68,2.4-.1,5.1,1.76,7.02,1.86,1.92,4.54,2.59,6.96,1.99.68-2.4.1-5.1-1.76-7.02-1.86-1.92-4.54-2.59-6.96-1.99Z"></path><g><g class="st31"><path class="st9" d="M98.72,101.18c.68,2.4.1,5.1-1.76,7.02-1.86,1.92-4.54,2.59-6.96,1.99,0,0,2.91-3,8.72-9.01Z"></path></g><g class="st47"><path class="st9" d="M81.28,101.18c-.68,2.4-.1,5.1,1.76,7.02,1.86,1.92,4.54,2.59,6.96,1.99,0,0-2.91-3-8.72-9.01Z"></path></g><path class="st7" d="M90,93.2c2.93,1.69,4.9,4.86,4.9,8.49,0,3.63-1.97,6.79-4.9,8.49-2.93-1.69-4.9-4.86-4.9-8.49s1.97-6.79,4.9-8.49Z"></path></g></g><g class="st48"><path class="st9" d="M90,93.42c-2.93,1.69-4.9,4.86-4.9,8.49,0,3.63,1.97,6.79,4.9,8.49v-16.98s0,0,0,0Z"></path></g></g><g><text class="st51" transform="translate(4.07 172.37) scale(.98 1)"><tspan x="0" y="0">Empowering Health</tspan></text><text class="st54" transform="translate(1.45 160.84) scale(.95 1)"><tspan class="st50" x="0" y="0">Nutre</tspan><tspan class="st43" x="134.7" y="0">lis</tspan></text></g></svg> 