<svg xmlns="http://www.w3.org/2000/svg" width="400" height="29" viewBox="0 0 400 29" fill="none"><rect width="58.3333" height="29" fill="#374961"></rect><rect x="25.8196" y="9.1189" width="6.69643" height="10.7619" fill="#FF5F00"></rect><path fill-rule="evenodd" clip-rule="evenodd" d="M26.5099 14.5002C26.5082 12.4005 27.4878 10.4166 29.1664 9.1202C26.3147 6.91498 22.2195 7.23619 19.7588 9.8581C17.2982 12.48 17.2982 16.5223 19.7588 19.1442C22.2195 21.7661 26.3147 22.0874 29.1664 19.8821C27.4872 18.5853 26.5076 16.6006 26.5099 14.5002Z" fill="#EB001B"></path><path fill-rule="evenodd" clip-rule="evenodd" d="M40.42 14.5004C40.4199 17.1207 38.8994 19.511 36.5041 20.656C34.1088 21.8011 31.2594 21.4999 29.1659 19.8804C30.8438 18.5829 31.8235 16.5993 31.8235 14.4995C31.8235 12.3996 30.8438 10.416 29.1659 9.1185C31.2594 7.49901 34.1088 7.19783 36.5041 8.34289C38.8994 9.48795 40.4199 11.8782 40.42 14.4985V14.5004Z" fill="#F79E1B"></path><rect width="58.3333" height="29" transform="translate(68.3334)" fill="#0066B1"></rect><path fill-rule="evenodd" clip-rule="evenodd" d="M95.635 18.772H93.3688L94.7862 10.2558H97.0523L95.635 18.772Z" fill="white"></path><path fill-rule="evenodd" clip-rule="evenodd" d="M103.85 10.4639C103.403 10.2916 102.694 10.1013 101.818 10.1013C99.5796 10.1013 98.0037 11.2609 97.994 12.9188C97.9754 14.142 99.1224 14.8213 99.9802 15.2292C100.857 15.646 101.155 15.918 101.155 16.2894C101.146 16.86 100.446 17.123 99.794 17.123C98.8893 17.123 98.4045 16.9874 97.6677 16.67L97.3693 16.5339L97.0522 18.4456C97.5837 18.6809 98.563 18.8897 99.5796 18.8988C101.958 18.8988 103.506 17.7572 103.524 15.9905C103.533 15.021 102.927 14.2782 101.622 13.6711C100.829 13.2815 100.344 13.0187 100.344 12.62C100.353 12.2576 100.754 11.8864 101.649 11.8864C102.386 11.8682 102.927 12.0402 103.337 12.2124L103.542 12.3029L103.85 10.4639Z" fill="white"></path><path fill-rule="evenodd" clip-rule="evenodd" d="M107.907 10.2558H109.66L111.488 18.7719H109.389C109.389 18.7719 109.184 17.7934 109.119 17.4944H106.209C106.125 17.7208 105.734 18.7719 105.734 18.7719H103.356L106.722 10.9624C106.955 10.4097 107.366 10.2558 107.907 10.2558ZM107.767 13.3724C107.767 13.3724 107.049 15.2659 106.862 15.7551H108.746C108.653 15.3294 108.223 13.2908 108.223 13.2908L108.065 12.557C107.998 12.746 107.902 13.0058 107.837 13.181C107.793 13.2998 107.763 13.3797 107.767 13.3724Z" fill="white"></path><path d="M83.5495 10.2545H87.1956C87.6898 10.2724 88.0909 10.4264 88.2213 10.9703L89.014 14.8843C89.0136 14.8833 89.0132 14.8823 89.0128 14.8813C89.0132 14.8826 89.0136 14.884 89.014 14.8853L89.2566 16.0631L91.4759 10.2559H93.8723L90.3102 18.7631H87.9137L85.8934 11.3616C85.1966 10.9658 84.4013 10.6475 83.5122 10.4266L83.5495 10.2545Z" fill="white"></path><rect width="58.3333" height="29" transform="translate(136.667)" fill="#374961"></rect><rect x="162.486" y="9.1189" width="6.69643" height="10.7619" fill="#6D6BC1"></rect><path fill-rule="evenodd" clip-rule="evenodd" d="M163.176 14.5002C163.175 12.4005 164.154 10.4166 165.833 9.1202C162.981 6.91498 158.886 7.23619 156.425 9.8581C153.965 12.48 153.965 16.5223 156.425 19.1442C158.886 21.7661 162.981 22.0874 165.833 19.8821C164.154 18.5853 163.174 16.6006 163.176 14.5002Z" fill="#FF0015"></path><path fill-rule="evenodd" clip-rule="evenodd" d="M177.087 14.5004C177.087 17.1207 175.566 19.511 173.171 20.656C170.775 21.8011 167.926 21.4999 165.833 19.8804C167.51 18.5829 168.49 16.5993 168.49 14.4995C168.49 12.3996 167.51 10.416 165.833 9.1185C167.926 7.49901 170.775 7.19783 173.171 8.34289C175.566 9.48795 177.087 11.8782 177.087 14.4985V14.5004Z" fill="#009AE2"></path><rect width="58.3333" height="29" transform="translate(205)" fill="#5A31F4"></rect><path d="M236.625 12.0425C236.625 13.8248 235.421 15.097 233.738 15.097H232.153C232.135 15.097 232.118 15.1006 232.102 15.1076C232.085 15.1145 232.071 15.1248 232.058 15.1376C232.046 15.1505 232.036 15.1658 232.03 15.1826C232.023 15.1994 232.02 15.2174 232.02 15.2356V17.578C232.02 17.6146 232.006 17.6497 231.981 17.6757C231.956 17.7016 231.922 17.7163 231.887 17.7165H230.777C230.751 17.7164 230.725 17.7082 230.703 17.6929C230.681 17.6777 230.664 17.6561 230.654 17.6308C230.647 17.6143 230.644 17.5966 230.644 17.5786V9.1259C230.644 9.10774 230.647 9.08974 230.654 9.07294C230.66 9.05613 230.67 9.04085 230.682 9.02798C230.695 9.01511 230.709 9.00489 230.726 8.99792C230.742 8.99095 230.759 8.98736 230.777 8.98736H233.745C235.421 8.98536 236.625 10.2576 236.625 12.0425V12.0425ZM235.242 12.0425C235.242 11.0179 234.568 10.269 233.655 10.269H232.153C232.135 10.269 232.118 10.2726 232.102 10.2796C232.085 10.2865 232.071 10.2967 232.058 10.3096C232.046 10.3225 232.036 10.3378 232.03 10.3546C232.023 10.3714 232.02 10.3894 232.02 10.4075V13.6695C232.02 13.7061 232.034 13.7411 232.059 13.767C232.084 13.7928 232.117 13.8074 232.153 13.8074H233.655C234.568 13.8141 235.242 13.0645 235.242 12.0425ZM236.954 16.0949C236.943 15.8215 236.997 15.5496 237.113 15.3036C237.229 15.0577 237.402 14.8457 237.616 14.6868C238.049 14.3488 238.726 14.1741 239.719 14.138L240.777 14.0992V13.7752C240.777 13.1261 240.358 12.8517 239.684 12.8517C239.011 12.8517 238.584 13.0993 238.486 13.5042C238.478 13.5327 238.461 13.5576 238.438 13.575C238.415 13.5925 238.387 13.6014 238.358 13.6006H237.313C237.294 13.6011 237.275 13.5972 237.257 13.5892C237.239 13.5813 237.224 13.5693 237.211 13.5543C237.198 13.5393 237.189 13.5216 237.184 13.5024C237.178 13.4832 237.177 13.463 237.18 13.4433C237.335 12.4836 238.105 11.7541 239.732 11.7541C241.463 11.7541 242.088 12.5906 242.088 14.1875V17.578C242.088 17.6149 242.074 17.6503 242.048 17.6762C242.023 17.7022 241.989 17.7167 241.953 17.7165H240.9C240.864 17.7164 240.831 17.702 240.805 17.6763C240.793 17.6635 240.783 17.6482 240.777 17.6315C240.77 17.6147 240.767 17.5968 240.767 17.5786V17.325C240.767 17.304 240.761 17.2834 240.75 17.2659C240.739 17.2484 240.723 17.2348 240.704 17.2269C240.686 17.219 240.665 17.2172 240.645 17.2217C240.626 17.2262 240.608 17.2367 240.594 17.252C240.278 17.6087 239.768 17.8664 238.95 17.8664C237.748 17.8664 236.954 17.2172 236.954 16.0949V16.0949ZM240.777 15.36V15.097L239.407 15.172C238.685 15.2101 238.265 15.5213 238.265 16.0454C238.265 16.5192 238.65 16.7815 239.323 16.7815C240.237 16.7815 240.777 16.2696 240.777 15.36V15.36ZM243.146 20.2784V19.2959C243.147 19.2753 243.151 19.255 243.16 19.2365C243.168 19.2179 243.181 19.2015 243.196 19.1885C243.212 19.1755 243.23 19.1661 243.249 19.1611C243.268 19.1561 243.288 19.1555 243.308 19.1594C243.469 19.1909 243.633 19.2069 243.798 19.2076C244.081 19.2219 244.36 19.1373 244.591 18.9674C244.822 18.7976 244.991 18.5522 245.072 18.2706L245.14 18.0444C245.15 18.014 245.15 17.9811 245.14 17.9507L242.945 12.1014C242.937 12.0802 242.934 12.0573 242.937 12.0347C242.939 12.0121 242.947 11.9905 242.959 11.9717C242.972 11.9528 242.988 11.9374 243.007 11.9267C243.027 11.9159 243.048 11.9102 243.07 11.91H244.135C244.162 11.9103 244.188 11.9191 244.211 11.9352C244.233 11.9513 244.25 11.974 244.26 12.0004L245.75 16.1257C245.76 16.1531 245.777 16.1768 245.8 16.1936C245.823 16.2104 245.85 16.2194 245.878 16.2194C245.906 16.2194 245.934 16.2104 245.956 16.1936C245.979 16.1768 245.997 16.1531 246.006 16.1257L247.301 12.0117C247.31 11.9836 247.327 11.9592 247.35 11.9419C247.373 11.9245 247.401 11.9153 247.43 11.9154H248.531C248.553 11.9155 248.574 11.9212 248.594 11.9319C248.613 11.9426 248.63 11.9581 248.643 11.977C248.655 11.9958 248.663 12.0175 248.666 12.0403C248.668 12.063 248.666 12.086 248.658 12.1074L246.31 18.6033C245.769 20.1131 244.842 20.4993 243.822 20.4993C243.628 20.5046 243.435 20.4805 243.248 20.4277C243.217 20.4191 243.189 20.3995 243.171 20.3722C243.152 20.3449 243.144 20.3117 243.146 20.2784V20.2784ZM223.514 8.50014C222.115 8.48981 220.766 9.03589 219.744 10.0261C219.7 10.0676 219.673 10.1245 219.668 10.1858C219.662 10.247 219.679 10.3082 219.714 10.3573L220.347 11.2541C220.368 11.284 220.394 11.3088 220.425 11.3269C220.456 11.3449 220.49 11.3558 220.525 11.3587C220.561 11.3615 220.596 11.3564 220.629 11.3435C220.662 11.3307 220.692 11.3104 220.717 11.2843C221.084 10.903 221.522 10.6016 222.003 10.3976C222.484 10.1936 222.999 10.0912 223.519 10.0963C225.689 10.0963 226.822 11.7909 226.822 13.464C226.822 15.2831 225.632 16.5627 223.92 16.5881C222.598 16.5881 221.601 15.6786 221.601 14.4773C221.603 14.1738 221.669 13.8744 221.795 13.6007C221.922 13.327 222.105 13.0858 222.332 12.8945C222.38 12.8529 222.41 12.7934 222.417 12.7288C222.423 12.6642 222.404 12.5997 222.365 12.5492L221.7 11.6778C221.68 11.6514 221.655 11.6295 221.626 11.6134C221.598 11.5972 221.567 11.5871 221.535 11.5837C221.502 11.5802 221.47 11.5835 221.439 11.5934C221.408 11.6032 221.379 11.6194 221.354 11.641C220.946 11.9824 220.616 12.4143 220.39 12.9051C220.163 13.3959 220.045 13.9331 220.045 14.4773C220.045 16.5453 221.739 18.1676 223.909 18.181H223.938C226.514 18.1462 228.377 16.1665 228.377 13.4607C228.377 11.058 226.671 8.50014 223.514 8.50014H223.514Z" fill="white"></path><rect width="58.3333" height="29" transform="translate(273.333)" fill="#212121"></rect><path fill-rule="evenodd" clip-rule="evenodd" d="M295.218 10.7868C294.949 11.1248 294.519 11.3914 294.089 11.3533C294.035 10.8963 294.246 10.4108 294.492 10.1109C294.761 9.7634 295.232 9.51587 295.613 9.49683C295.658 9.97285 295.483 10.4394 295.218 10.7868ZM295.608 11.444C295.229 11.4208 294.883 11.5651 294.604 11.6816C294.424 11.7566 294.272 11.8201 294.156 11.8201C294.026 11.8201 293.867 11.7532 293.689 11.6781C293.456 11.5797 293.189 11.4672 292.91 11.4726C292.269 11.4821 291.672 11.8677 291.345 12.4817C290.673 13.7099 291.17 15.5283 291.82 16.5279C292.139 17.023 292.52 17.5657 293.022 17.5466C293.243 17.5378 293.401 17.4662 293.566 17.3921C293.755 17.3068 293.952 17.2182 294.259 17.2182C294.555 17.2182 294.743 17.3045 294.924 17.3873C295.096 17.4661 295.26 17.5417 295.505 17.5371C296.025 17.5276 296.352 17.042 296.671 16.547C297.014 16.0156 297.165 15.4971 297.188 15.4184L297.191 15.4093C297.19 15.4087 297.186 15.4066 297.179 15.403C297.064 15.3472 296.186 14.9205 296.178 13.7765C296.169 12.8163 296.874 12.3297 296.985 12.2532C296.991 12.2485 296.996 12.2454 296.998 12.2437C296.55 11.5392 295.85 11.463 295.608 11.444ZM299.208 17.4847V10.0635H301.831C303.184 10.0635 304.13 11.0536 304.13 12.5007C304.13 13.9478 303.167 14.9475 301.795 14.9475H300.293V17.4847H299.208ZM300.293 11.0345H301.544C302.485 11.0345 303.023 11.5676 303.023 12.5054C303.023 13.4431 302.485 13.981 301.539 13.981H300.293V11.0345ZM307.712 16.5946C307.425 17.1753 306.793 17.5419 306.112 17.5419C305.103 17.5419 304.399 16.904 304.399 15.9424C304.399 14.9904 305.081 14.443 306.34 14.362L307.694 14.2763V13.867C307.694 13.2624 307.322 12.934 306.659 12.934C306.112 12.934 305.713 13.2339 305.632 13.6908H304.655C304.686 12.7293 305.538 12.0295 306.69 12.0295C307.932 12.0295 308.739 12.7198 308.739 13.7908V17.4847H307.735V16.5946H307.712ZM306.403 16.6609C305.825 16.6609 305.457 16.3657 305.457 15.9135C305.457 15.447 305.812 15.1757 306.488 15.1328L307.694 15.0519V15.4708C307.694 16.1658 307.138 16.6609 306.403 16.6609ZM312.07 17.7752C311.635 19.0748 311.137 19.5032 310.079 19.5032C309.998 19.5032 309.729 19.4937 309.667 19.4746V18.5844C309.734 18.594 309.9 18.6035 309.985 18.6035C310.465 18.6035 310.734 18.3893 310.9 17.8323L310.998 17.5039L309.16 12.101H310.294L311.572 16.4852H311.594L312.872 12.101H313.975L312.07 17.7752Z" fill="white"></path><rect x="341.667" width="58.3333" height="29" fill="white"></rect><path fill-rule="evenodd" clip-rule="evenodd" d="M370.212 16.982V14.3993L371.613 14.3988C372.19 14.3992 372.675 14.2182 373.068 13.8558C373.465 13.5119 373.688 13.0175 373.676 12.5021C373.684 11.9896 373.462 11.4989 373.068 11.1561C372.679 10.7918 372.155 10.593 371.613 10.6039H369.365V16.982H370.212ZM370.212 13.6157V11.3893L371.634 11.3888C371.95 11.3802 372.256 11.5034 372.472 11.7272C372.69 11.9319 372.813 12.213 372.813 12.5066C372.813 12.8002 372.69 13.0813 372.472 13.286C372.253 13.5051 371.949 13.6248 371.634 13.6157H370.212Z" fill="#333333"></path><path fill-rule="evenodd" clip-rule="evenodd" d="M377.113 12.961C376.75 12.6373 376.256 12.4755 375.629 12.4755C374.825 12.4755 374.217 12.7605 373.806 13.3305L374.553 13.7849C374.829 13.3988 375.203 13.2058 375.677 13.2058C375.979 13.2024 376.271 13.309 376.495 13.5045C376.718 13.6831 376.847 13.9494 376.845 14.2297V14.417C376.519 14.2389 376.105 14.1498 375.601 14.1498C375.012 14.1505 374.54 14.2842 374.187 14.5508C373.834 14.8175 373.658 15.1766 373.658 15.6282C373.65 16.0393 373.835 16.432 374.16 16.6968C374.495 16.9818 374.911 17.1243 375.408 17.1243C375.991 17.1243 376.458 16.875 376.808 16.3762H376.845V16.9818H377.656V14.2923C377.656 13.7284 377.475 13.2847 377.113 12.961ZM374.814 16.1802C374.636 16.0565 374.532 15.8575 374.533 15.6459C374.533 15.4082 374.648 15.2103 374.88 15.0474C375.11 14.887 375.397 14.8067 375.741 14.8067C376.214 14.8067 376.583 14.9085 376.847 15.1121C376.847 15.4561 376.707 15.7558 376.426 16.0113C376.173 16.2558 375.83 16.3934 375.472 16.394C375.234 16.3983 375.001 16.3228 374.814 16.1802Z" fill="#333333"></path><path fill-rule="evenodd" clip-rule="evenodd" d="M382.31 12.618L379.48 18.9055H378.605L379.655 16.7055L377.794 12.618H378.715L380.06 15.7529H380.079L381.387 12.618H382.31Z" fill="#333333"></path><path fill-rule="evenodd" clip-rule="evenodd" d="M366.787 13.8422C366.788 13.5925 366.766 13.3432 366.722 13.0972H363.147V14.5083H365.195C365.11 14.9638 364.837 15.366 364.438 15.6218V16.5378H365.66C366.375 15.9002 366.787 14.9572 366.787 13.8422Z" fill="#4285F4"></path><path fill-rule="evenodd" clip-rule="evenodd" d="M363.147 17.423C364.17 17.423 365.031 17.0983 365.659 16.5386L364.438 15.6225C364.098 15.8454 363.66 15.9727 363.147 15.9727C362.159 15.9727 361.32 15.3284 361.019 14.4602H359.761V15.4042C360.404 16.6418 361.714 17.423 363.147 17.423Z" fill="#34A853"></path><path fill-rule="evenodd" clip-rule="evenodd" d="M361.019 14.4603C360.861 14.0054 360.861 13.5127 361.019 13.0578V12.1138H359.761C359.223 13.1489 359.223 14.3692 359.761 15.4043L361.019 14.4603Z" fill="#FBBC04"></path><path fill-rule="evenodd" clip-rule="evenodd" d="M363.147 11.5451C363.688 11.5366 364.21 11.734 364.601 12.0947V12.0947L365.683 11.0489C364.997 10.4261 364.088 10.0841 363.147 10.0947C361.714 10.0948 360.404 10.8759 359.761 12.1135L361.019 13.0575C361.32 12.1894 362.159 11.5451 363.147 11.5451Z" fill="#EA4335"></path><rect x="342.167" y="0.5" width="57.3333" height="28" stroke="#333333" stroke-opacity="0.2"></rect></svg>